<svg xmlns="http://www.w3.org/2000/svg" id="Livello_2" data-name="Livello 2" viewBox="0 0 154 154"><defs><style>.cls-1{fill:#f1c273;stroke:#f1c273;stroke-miterlimit:10}</style></defs><g id="Livello_1-2" data-name="Livello 1"><path d="M27 73.87h13.44v6.25H27z" class="cls-1"/><path d="M100.91 29.52s.45 1.99 1.22 5.14H51.86c.77-3.14 1.22-5.14 1.22-5.14H27v41.8h13.44c3.25-6.24 7.04-19.55 9.62-29.48h24.21v65.04H49.98L39.66 82.72H27.01v42.56s4.74 3.8 13.44 0 8.7 3.04 17.39 0l-4.98-11.65h48.3l-4.98 11.65c8.7 3.04 8.7-3.8 17.39 0 8.7 3.8 13.44 0 13.44 0V82.72h-12.65l-10.32 24.16H78.97V41.83h24.99c2.58 9.93 6.37 23.24 9.62 29.48h13.44V29.52h-26.09Z" class="cls-1"/><path d="M113.56 73.87H127v6.25h-13.44zM101.24 61.18 85.09 77.34l1.38 1.38 16.16-16.15-1.39-1.39zM64.66 73.09 48.5 89.25l1.39 1.38 16.15-16.16-1.38-1.38zM83.261 99.346l22.373-22.373 1.379 1.379-22.373 22.373z" class="cls-1"/><circle cx="77" cy="77" r="75" style="fill:none;stroke-width:4px;stroke:#f1c273;stroke-miterlimit:10"/></g></svg>