<svg xmlns="http://www.w3.org/2000/svg" id="Livello_2" data-name="Livello 2" viewBox="0 0 154 154"><defs><style>.cls-1{fill:#f1c273;stroke:#f1c273;stroke-miterlimit:10}</style></defs><g id="Livello_1-2" data-name="Livello 1"><g id="Layer_2" data-name="Layer 2"><path d="M123.67 28.78H30.33c-1.84 0-3.33 1.49-3.33 3.33v10c0 1.84 1.49 3.33 3.33 3.33v66.67c-1.84 0-3.33 1.49-3.33 3.33v10c0 1.84 1.49 3.33 3.33 3.33h93.34c1.84 0 3.33-1.49 3.33-3.33v-10c0-1.84-1.49-3.33-3.33-3.33V45.45c1.84 0 3.33-1.49 3.33-3.33v-10c0-1.84-1.49-3.33-3.33-3.33Zm-90 6.67h86.66v3.33H33.67v-3.33ZM67 112.12V45.45h6.67v66.66H67ZM37 45.45h23.33v66.66H37V45.45Zm83.33 76.66H33.67v-3.33h86.66v3.33Zm-3.33-10H80.33V45.45H117v66.66Z" class="cls-1"/><path d="M87 88.78c1.84 0 3.33-1.49 3.33-3.33V72.12c0-1.84-1.49-3.33-3.33-3.33s-3.33 1.49-3.33 3.33v13.33c0 1.84 1.49 3.33 3.33 3.33Z" class="cls-1"/></g><circle cx="77" cy="77" r="75" style="fill:none;stroke-width:4px;stroke:#f1c273;stroke-miterlimit:10"/></g></svg>