<?xml version="1.0" encoding="UTF-8"?>
<svg id="Livello_2" data-name="Livello 2" xmlns="http://www.w3.org/2000/svg" viewBox="0 0 1125 2436">
  <defs>
    <style>
      .cls-1 {
        fill: #000000;
      }
    </style>
  </defs>
  <g id="Livello_1-2" data-name="Livello 1">
    <path class="cls-1" d="M0,0V2436H1125V0H0ZM265.02,1313.6h-59.52v-192.17h59.52v192.17Zm98.82,0h-55.84v-105.39l55.84,79.75v25.65Zm127.94,0h-55.41l.79-.54-65.84-94.01-7.49-10.97v.28l-55.84-79.75v-7.18h54.54l129.25,191.64v.54Zm0-84.91l-55.97-82.99v-24.26h55.97v107.26Zm210.07,35.92c-4.65,11.33-11.15,20.81-19.46,28.46-8.31,7.64-17.23,12.73-26.74,15.26-13.01,3.5-24.8,5.24-35.39,5.24h-88.21v-104.63h59.4v60.98h14.55c12.43,0,21.25-1.36,26.49-4.12,5.24-2.76,9.36-7.57,12.32-14.42s4.45-17.97,4.45-33.37c0-20.35-3.32-34.29-9.97-41.8-6.65-7.52-17.64-11.28-33.03-11.28h-74.2v-43.54h88.21c17.39,0,31.42,2.35,42.14,7.08,10.69,4.73,19.56,11.51,26.54,20.33,7.01,8.82,12.07,19.1,15.21,30.81l-.03-.03c3.14,11.71,4.73,24.11,4.73,37.23,0,20.56-2.33,36.46-7.01,47.79Zm154.43,48.99l-9.61-31.73-12.3-41.55-21.22-69.09-20.99,69.09-12.89,41.55-9.38,31.73h-60.62l72.23-192.17h64.76l72.23,192.17h-62.21Z"/>
  </g>
</svg>