<?xml version="1.0" encoding="UTF-8"?>
<svg id="Livello_2" data-name="Livello 2" xmlns="http://www.w3.org/2000/svg" viewBox="0 0 1024 768">
  <defs>
    <style>
      .cls-1 {
        fill: #ebeced;
      }
    </style>
  </defs>
  <g id="Livello_1-2" data-name="Livello 1">
    <path class="cls-1" d="M0,0V768H1024V0H0ZM311.74,449.46h-40.24v-129.91h40.24v129.91Zm66.81,0h-37.75v-71.25l37.75,53.91v17.34Zm86.49,0h-37.46l.54-.36-44.51-63.56-5.06-7.42v.19l-37.75-53.91v-4.86h36.87l87.37,129.55v.36Zm0-57.4l-37.84-56.11v-16.4h37.84v72.51Zm142.01,24.28c-3.15,7.66-7.54,14.07-13.15,19.24-5.62,5.17-11.65,8.61-18.08,10.32-8.8,2.37-16.77,3.54-23.92,3.54h-59.63v-70.73h40.15v41.22h9.83c8.4,0,14.36-.92,17.91-2.78,3.54-1.87,6.33-5.12,8.33-9.75,2.01-4.63,3.01-12.15,3.01-22.56,0-13.76-2.25-23.18-6.74-28.26-4.49-5.08-11.93-7.62-22.33-7.62h-50.16v-29.44h59.63c11.75,0,21.24,1.59,28.49,4.79,7.22,3.2,13.22,7.78,17.94,13.74,4.74,5.96,8.16,12.91,10.28,20.83l-.02-.02c2.13,7.92,3.2,16.3,3.2,25.17,0,13.9-1.57,24.65-4.74,32.3Zm104.4,33.12l-6.5-21.45-8.31-28.09-14.35-46.7-14.19,46.7-8.71,28.09-6.34,21.45h-40.98l48.83-129.91h43.78l48.83,129.91h-42.05Z"/>
  </g>
</svg>