<?xml version="1.0" encoding="UTF-8"?>
<svg id="Livello_2" data-name="Livello 2" xmlns="http://www.w3.org/2000/svg" viewBox="0 0 800 600">
  <defs>
    <style>
      .cls-1 {
        fill: #ebeced;
      }
    </style>
  </defs>
  <g id="Livello_1-2" data-name="Livello 1">
    <path class="cls-1" d="M0,0V600H800V0H0ZM258.38,345.83h-28.38v-91.64h28.38v91.64Zm47.12,0h-26.63v-50.26l26.63,38.03v12.23Zm61.01,0h-26.42l.38-.26-31.4-44.83-3.57-5.23v.13l-26.63-38.03v-3.43h26.01l61.63,91.38v.26Zm0-40.49l-26.69-39.58v-11.57h26.69v51.15Zm100.17,17.13c-2.22,5.4-5.32,9.92-9.28,13.57-3.96,3.65-8.22,6.07-12.75,7.28-6.21,1.67-11.83,2.5-16.87,2.5h-42.06v-49.89h28.32v29.08h6.94c5.93,0,10.13-.65,12.63-1.96,2.5-1.32,4.46-3.61,5.88-6.88,1.41-3.27,2.12-8.57,2.12-15.91,0-9.71-1.58-16.35-4.76-19.93-3.17-3.58-8.41-5.38-15.75-5.38h-35.38v-20.76h42.06c8.29,0,14.98,1.12,20.09,3.38,5.1,2.26,9.33,5.49,12.66,9.69,3.34,4.21,5.75,9.11,7.25,14.69h-.01c1.5,5.57,2.26,11.49,2.26,17.74,0,9.8-1.11,17.39-3.34,22.79Zm73.64,23.36l-4.58-15.13-5.86-19.81-10.12-32.94-10.01,32.94-6.15,19.81-4.47,15.13h-28.91l34.44-91.64h30.88l34.44,91.64h-29.66Z"/>
  </g>
</svg>