<svg data-name="Livello 2" xmlns="http://www.w3.org/2000/svg" viewBox="0 0 62.1 62.1"><g data-name="Livello 1"><path style="fill:#1d1d1b;stroke:#1d1d1b;stroke-miterlimit:10;stroke-width:2px" d="M1 1h60.1v60.1H1z"/><path d="m42.87 16.83-4.41 4.55.41.44c-.29.24-.59.48-.87.69-.46.34-.91.61-1.21.74-.02 0-.1.03-.26.03-.26 0-.69-.07-1.23-.15-.53-.08-1.17-.17-1.89-.17-.63 0-1.32.08-2.05.28-.73-.21-1.42-.28-2.05-.28-.72 0-1.36.09-1.89.17-.53.08-.97.15-1.22.15-.16 0-.24-.02-.26-.03-.32-.14-.81-.44-1.3-.81-.26-.19-.52-.41-.78-.62l.41-.44-4.41-4.55L8.74 28.71l4.41 4.55 1.29-1.38 2.85 2.56c.08.49.23.96.4 1.4.11.28.24.55.36.8-.28.47-.43 1.01-.42 1.55 0 .54.14 1.09.44 1.58.45.75 1.17 1.21 1.95 1.36 0 .53.15 1.07.44 1.55.55.91 1.5 1.42 2.47 1.42h.11c.05.42.18.85.42 1.23.55.91 1.5 1.42 2.47 1.42.1 0 .19-.01.29-.02.05.38.17.76.38 1.11.5.83 1.37 1.29 2.25 1.29.48 0 .96-.13 1.4-.41l1.32-.85c.26.17.53.33.82.45.53.23 1.11.37 1.71.38.66 0 1.35-.18 1.95-.62.39-.28.72-.66.99-1.12h.12c.27 0 .57-.04.87-.14.3-.09.6-.24.92-.42.76-.44 1.21-1.09 1.43-1.64.05-.12.08-.24.12-.35.18-.06.36-.13.52-.23.59-.35.97-.88 1.2-1.41.24-.54.34-1.09.34-1.63v-.16c.38-.16.73-.39 1.02-.65.3-.27.55-.59.74-.95.19-.36.31-.77.31-1.22 0-.29-.06-.6-.18-.89-.04-.09-.1-.18-.15-.26.22-.41.45-.88.64-1.38.14-.38.26-.78.33-1.2l2.97-2.67 1.39 1.49 4.41-4.55-11.12-11.88ZM20.99 38.85l-.05.03a.776.776 0 0 1-1.09-.27.848.848 0 0 1-.12-.43.8.8 0 0 1 .37-.69l1.75-1.12c.13-.09.27-.12.41-.12.27 0 .52.13.67.39l.9-.58-.9.58c.08.14.12.28.12.43 0 .19-.07.38-.19.53l-1.5.96c-.14.09-.26.19-.38.29Zm2.33 2.95a.787.787 0 0 1-1.09-.26.811.811 0 0 1 .07-.95l1.5-.96c.14-.09.26-.19.38-.29l.05-.03c.13-.09.27-.12.41-.12.27 0 .52.13.67.39.08.14.12.28.12.43 0 .28-.13.54-.37.7l-1.74 1.12Zm4.74 1.52-1.74 1.12a.787.787 0 0 1-1.09-.26.848.848 0 0 1-.12-.43.8.8 0 0 1 .37-.69l1.75-1.12c.13-.09.27-.12.41-.12.27 0 .52.13.67.38.08.14.12.28.12.43 0 .27-.13.54-.37.69Zm2.7 1.82c.06.09.08.19.08.29 0 .18-.09.36-.25.47l-1.5.96c-.09.06-.18.08-.28.08-.18 0-.35-.09-.45-.26a.51.51 0 0 1-.08-.29c0-.19.09-.36.25-.46l1.5-.96c.09-.06.18-.08.28-.08.18 0 .35.09.45.26l.9-.58-.9.58Zm11.64-6.78c-.08.15-.25.35-.47.49-.22.14-.48.22-.73.22-.09 0-.17.02-.26.04-.15-.03-.3-.08-.45-.14-.46-.19-.89-.49-1.2-.74-.15-.13-.27-.24-.35-.32l-.09-.09-.02-.02c-.3-.33-.8-.35-1.12-.05a.84.84 0 0 0-.05 1.16c.03.03.43.48 1.08.94a5.862 5.862 0 0 0 1.49.77c.03.07.07.14.12.2s.05.15.05.33c0 .3-.1.7-.25.91-.07.11-.15.18-.22.23-.08.04-.15.07-.29.07h-.14c-.69 0-1.33-.3-1.8-.64a3.57 3.57 0 0 1-.55-.46l-.14-.14-.03-.03a.776.776 0 0 0-1.12-.08c-.33.3-.37.81-.08 1.16s.4.47 1.04.92c.42.29.97.6 1.62.77 0 .02-.01.04-.02.06-.08.19-.2.39-.53.59-.22.13-.38.2-.49.23-.11.03-.17.04-.25.04-.1 0-.26-.02-.51-.08-.05-.01-.09-.01-.14-.02-.02 0-.03-.01-.05-.02a5.34 5.34 0 0 1-.82-.55c-.12-.1-.22-.19-.29-.25l-.08-.07-.02-.02a.773.773 0 0 0-1.12.02c-.3.33-.29.85.03 1.16.02.02.35.35.82.69.08.06.18.12.27.18-.13.21-.26.36-.4.46-.21.15-.44.22-.74.22-.27 0-.58-.07-.89-.2-.1-.04-.2-.11-.31-.17a2.82 2.82 0 0 0-.31-2.15c-.46-.76-1.22-1.2-2.01-1.27v-.09c0-.54-.14-1.09-.44-1.58-.55-.91-1.5-1.42-2.47-1.42h-.11c-.05-.42-.18-.85-.42-1.23a2.862 2.862 0 0 0-1.95-1.36c0-.53-.15-1.07-.44-1.55-.55-.91-1.5-1.42-2.47-1.42-.52 0-1.06.15-1.53.45l-1.02.65c-.02-.06-.06-.11-.08-.17-.18-.44-.29-.87-.3-1.17l-.02-.46-3.41-3.07 6.47-6.91c.33.28.67.56 1.02.82.58.43 1.15.81 1.73 1.06.37.16.74.2 1.07.2.54 0 1.03-.1 1.54-.17.03 0 .07 0 .1-.01-.7.62-1.32 1.3-1.84 1.93-.44.53-.81 1.03-1.1 1.44-.29.41-.51.73-.61.86-.48.65-.69 1.42-.69 2.19 0 .72.19 1.47.67 2.11.24.31.56.59.94.77.38.19.82.28 1.27.28.56 0 1.15-.14 1.78-.41 1.96-.86 3.98-1.43 5.5-1.78.76-.18 1.4-.3 1.84-.37.08-.01.15-.03.22-.04l6.65 5.92c0 .02-.01.08-.06.17Zm.77-4.99-.02.46c-.01.26-.1.64-.25 1.02-.07.2-.16.4-.26.61l-5.83-5.18c-.23-.2-.53-.3-.83-.26-.05.01-4.33.56-8.58 2.41-.42.18-.74.24-.95.24-.17 0-.28-.03-.36-.07a.713.713 0 0 1-.28-.29 1.39 1.39 0 0 1-.13-.62c0-.34.11-.69.25-.85.16-.22.37-.52.64-.91.41-.58.97-1.32 1.64-2.04.67-.72 1.44-1.43 2.25-1.92 1.1-.67 2.03-.83 2.92-.84.55 0 1.07.07 1.58.15.51.08 1 .17 1.54.17.33 0 .7-.04 1.07-.2.58-.26 1.16-.63 1.73-1.06.35-.26.69-.54 1.02-.82l6.37 6.8-3.53 3.18Z" style="fill:#fff"/></g></svg>