<?xml version="1.0" encoding="UTF-8"?>
<svg id="Livello_2" data-name="Livello 2" xmlns="http://www.w3.org/2000/svg" viewBox="0 0 49.28 16.28">
  <defs>
    <style>
      .cls-1 {
        fill: #fff;
        fill-rule: evenodd;
      }
    </style>
  </defs>
  <g id="Livello_1-2" data-name="Livello 1">
    <path class="cls-1" d="M3.02,16.27c1.55-3.08,5.72-3.65,8.24-1.33,1.67,1.55,2.34,.34,3.49-.48,.99-.7,2.71-1.53,5.23-1.52,3.76,.02,6.72,2,7.76,2.67,1.04,.67,2.1,.74,3.42,.12,1.32-.62,11.42-6.77,18.06-7.01l.06-2.08-1.24,.24L46.33,.22s-.09-.29-.68-.21c-8.14,4.38-20.79-2.94-31.95,2.65C8.9,1.51,3.36,3.23,0,5.01l3.02,11.27h0ZM1.21,5.67l.39,1.53c2.24-1.55,6.67-3.51,8.75,1.02-2.33-2.91-5.99-2.72-8.57-.32l.42,1.62c.77-.46,2.6-1.44,4.18-1.45,2.05,0,2.9,2.29,2.9,2.29,0,0-.81-1.6-3.24-1.44-1.86,.12-3.07,1-3.56,1.42l.88,3.43c2.13-4.05,6.76-.36,6.99-1.28,.11-.24-.04-.66-.09-1.12-.21-2.07,3.18-3.13,4.02-.28,.44,1.5,.39,1.1,.39,1.1,0,0,1.01-1.48,3.95-1.66,5.09-.3,8.9,3.34,11.16,2.92-.03-.81-.04-1.99,.1-3.17-4.71-.11-8.76-4.97-13.66-1.2,0,0,1.54-2.5,6.01-2.02,3.54,.38,4.76,2.28,7.79,2.29,.16-.83,.42-1.56,.55-2.42-.05,0-.09-.01-.14-.02-5.48-.91-11.06-4.56-16.5,1.1,0,0,1.48-3.7,6.4-4.07,3.13-.24,5.83,1.55,10.37,1.91,.1-1.12,.11-2.2,.11-2.88-3.92-.31-7.77-.87-9.99-.74-3.63,.21-7.57,1.57-8.55,4.85,0,0-2.73-5.67-11.05-1.4h0Zm29.12,7.62c.26-.08,.51-.19,.73-.31,1.08-.59,9.8-5.31,16.02-6.05,0,0-1.24-5.81-1.53-6.07,0,0-2.02,1.46-7.6,2.12-2.02,.24-4.34,.18-6.66,0,0,1.13-.05,2.06-.13,2.88,2.51,.14,5.57-.16,9.54-1.43,0,0-4.45,3.13-9.68,2.54-.13,.84-.29,1.58-.45,2.34,3.72-.24,9.59-2.33,13.76-3.14-3.33,.97-11.01,3.99-13.95,4.08v.06c-.26,1.29-.18,2.3-.05,2.98Z"/>
  </g>
</svg>