<svg data-name="Livello 2" xmlns="http://www.w3.org/2000/svg" viewBox="0 0 62.1 62.1"><g data-name="Livello 1"><path style="fill:#1d1d1b;stroke:#1d1d1b;stroke-miterlimit:10;stroke-width:2px" d="M1 1h60.1v60.1H1z"/><path d="M26.21 13.24c-.68 0-1.23.55-1.23 1.23v8.61h-3.69c-.68 0-1.23.55-1.23 1.23v5.42c-2.14-.12-3.94.23-5 .62-.49.18-.81.65-.81 1.17.02 2.39 1.38 7.78 6.52 11.33 2.44 1.68 4.62 2.18 6.44 1.94a6.23 6.23 0 0 0 2.66-.98c.01.01.02.02.03.04v5.07a1.23 1.23 0 1 0 2.46 0v-3.29c.42.19.87.35 1.35.46 2.28.55 5.17.2 8.58-1.83 6.8-4.06 8.97-10.79 9.2-13.77.04-.52-.25-1.01-.73-1.22-1.27-.56-3.45-1.14-6.1-1.19v-8.69c0-.68-.55-1.23-1.23-1.23h-6.15v-3.69c0-.68-.55-1.23-1.23-1.23h-9.84Zm-1.23 17.59c-.87-.35-1.72-.6-2.55-.78.06-.14.09-.3.09-.47v-4.04h2.46v5.29Zm2.99 1.61c-.18-.12-.35-.24-.53-.35V15.7h7.38v14.83c-.18.1-.37.21-.55.32-1.83 1.09-3.17 2.29-4.1 3.51a13 13 0 0 0-2.21-1.91Zm-1.4 2.03c1.09.75 1.82 1.49 2.31 2.18-.11.29-.21.58-.28.87-.41 1.56-.28 3 .08 4.13-.42.32-1.02.61-1.77.7-1.1.14-2.68-.11-4.73-1.53-3.72-2.57-5.06-6.29-5.37-8.41 2.1-.46 6.05-.52 9.77 2.05Zm4.59 6.83c.06.09.1.18.14.28.02.04.04.08.06.11.41.68 1.39 1.64 2.94 2.02 1.53.37 3.76.22 6.73-1.56 5.32-3.18 7.37-8.21 7.88-10.95-2.66-.85-8.06-1.43-13.38 1.75-2.98 1.78-4.17 3.67-4.56 5.19-.34 1.29-.13 2.42.18 3.15Zm11.06-13.11c0-.06-.01-.12-.01-.18v-7.38h-4.92v8.75c1.7-.66 3.37-1.02 4.94-1.19Z" style="fill:#fff;fill-rule:evenodd"/></g></svg>