<?xml version="1.0" encoding="UTF-8"?>
<svg id="Livello_2" data-name="Livello 2" xmlns="http://www.w3.org/2000/svg" viewBox="0 0 37.24 36.91">
  <defs>
    <style>
      .cls-1 {
        fill: #fff;
        fill-rule: evenodd;
      }
    </style>
  </defs>
  <g id="Livello_1-2" data-name="Livello 1">
    <path class="cls-1" d="M11.96,0C11.28,0,10.73,.55,10.73,1.23V9.84h-3.69c-.68,0-1.23,.55-1.23,1.23v5.42c-2.14-.12-3.94,.23-5,.62-.49,.18-.81,.65-.81,1.17,.02,2.39,1.38,7.78,6.52,11.33,2.44,1.68,4.62,2.18,6.44,1.94,.95-.12,1.86-.45,2.66-.98,.01,0,.02,.02,.03,.04v5.07c0,.68,.55,1.23,1.23,1.23s1.23-.55,1.23-1.23v-3.29c.42,.19,.87,.35,1.35,.46,2.28,.55,5.17,.2,8.58-1.83,6.8-4.06,8.97-10.79,9.2-13.77,.04-.52-.25-1.01-.73-1.22-1.27-.56-3.45-1.14-6.1-1.19V6.15c0-.68-.55-1.23-1.23-1.23h-6.15V1.23c0-.68-.55-1.23-1.23-1.23,0,0-9.84,0-9.84,0Zm-1.23,17.59c-.87-.35-1.72-.6-2.55-.78,.06-.14,.09-.3,.09-.47v-4.04h2.46s0,5.29,0,5.29Zm2.99,1.61c-.18-.12-.35-.24-.53-.35V2.46h7.38v14.83c-.18,.1-.37,.21-.55,.32-1.83,1.09-3.17,2.29-4.1,3.51-.66-.72-1.4-1.36-2.21-1.91h.01Zm-1.4,2.02c1.09,.75,1.82,1.49,2.31,2.18-.11,.29-.21,.58-.28,.87-.41,1.56-.28,3,.08,4.13-.42,.32-1.02,.61-1.77,.7-1.1,.14-2.68-.11-4.73-1.53-3.72-2.57-5.06-6.29-5.37-8.41,2.1-.46,6.05-.52,9.77,2.05h0Zm4.59,6.84c.06,.09,.1,.18,.14,.28,.02,.04,.04,.08,.06,.11,.41,.68,1.39,1.64,2.94,2.02,1.53,.37,3.76,.22,6.73-1.56,5.32-3.18,7.37-8.21,7.88-10.95-2.66-.85-8.06-1.43-13.38,1.75-2.98,1.78-4.17,3.67-4.56,5.19-.34,1.29-.13,2.42,.18,3.15h.01Zm11.06-13.1c0-.06,0-.12,0-.18V7.39h-4.92v8.75c1.7-.66,3.37-1.02,4.94-1.19h0Z"/>
  </g>
</svg>