<svg id="Livello_2" data-name="Livello 2" xmlns="http://www.w3.org/2000/svg" viewBox="0 0 62.1 62.1"><defs><style>.cls-2{fill:none;stroke:#fff;stroke-linecap:round;stroke-linejoin:round;stroke-width:3px}</style></defs><g id="Livello_1-2" data-name="Livello 1"><g id="Valori"><path id="Contenitore" style="fill:#1d1d1b;stroke:#1d1d1b;stroke-miterlimit:10;stroke-width:2px" d="M1 1h60.1v60.1H1z"/><g id="Icona"><path class="cls-2" d="M29.53 13.1c.56-.31.83-.46 1.13-.52.26-.05.53-.05.79 0 .29.06.57.21 1.13.52l14.48 7.99c.59.32.88.49 1.09.71.19.2.33.44.42.71.1.3.1.63.1 1.3v15.77c0 .67 0 1-.1 1.3-.09.26-.23.5-.42.71-.21.23-.51.39-1.09.72L32.58 50.3c-.56.31-.83.46-1.13.52a2.1 2.1 0 0 1-.79 0c-.29-.06-.57-.21-1.13-.52l-14.48-7.99c-.59-.32-.88-.49-1.09-.72-.19-.2-.33-.44-.42-.71-.1-.3-.1-.63-.1-1.3V23.81c0-.67 0-1 .1-1.3.09-.26.23-.5.42-.71.21-.23.51-.39 1.09-.71l14.48-7.99Z"/><path class="cls-2" d="M31.04 26c-1.96-2.27-5.22-2.88-7.67-.8s-2.8 5.56-.87 8.02c1.23 1.58 4.39 4.5 6.5 6.39.7.63 1.05.95 1.47 1.07.36.11.77.11 1.14 0 .42-.13.77-.44 1.47-1.07 2.11-1.9 5.27-4.82 6.5-6.39 1.92-2.46 1.62-5.96-.87-8.02-2.49-2.06-5.71-1.47-7.67.8Z"/></g></g></g></svg>