<?xml version="1.0" encoding="UTF-8"?>
<svg id="Livello_2" data-name="Livello 2" xmlns="http://www.w3.org/2000/svg" viewBox="0 0 154 154">
  <defs>
    <style>
      .cls-1 {
        fill: #f1c273;
      }

      .cls-1, .cls-2 {
        stroke: #f1c273;
        stroke-miterlimit: 10;
      }

      .cls-2 {
        fill: none;
        stroke-width: 4px;
      }
    </style>
  </defs>
  <g id="Livello_1-2" data-name="Livello 1">
    <g id="Layer_2" data-name="Layer 2">
      <path class="cls-1" d="M123.67,28.78H30.33c-1.84,0-3.33,1.49-3.33,3.33v10c0,1.84,1.49,3.33,3.33,3.33V112.11c-1.84,0-3.33,1.49-3.33,3.33v10c0,1.84,1.49,3.33,3.33,3.33H123.67c1.84,0,3.33-1.49,3.33-3.33v-10c0-1.84-1.49-3.33-3.33-3.33V45.45c1.84,0,3.33-1.49,3.33-3.33v-10c0-1.84-1.49-3.33-3.33-3.33Zm-90,6.67H120.33v3.33H33.67v-3.33Zm33.33,76.67V45.45h6.67V112.11h-6.67ZM37,45.45h23.33V112.11h-23.33V45.45ZM120.33,122.11H33.67v-3.33H120.33v3.33Zm-3.33-10h-36.67V45.45h36.67V112.11Z"/>
      <path class="cls-1" d="M87,88.78c1.84,0,3.33-1.49,3.33-3.33v-13.33c0-1.84-1.49-3.33-3.33-3.33s-3.33,1.49-3.33,3.33v13.33c0,1.84,1.49,3.33,3.33,3.33Z"/>
    </g>
    <circle class="cls-2" cx="77" cy="77" r="75"/>
  </g>
</svg>