<?xml version="1.0" encoding="UTF-8"?>
<svg id="Livello_2" data-name="Livello 2" xmlns="http://www.w3.org/2000/svg" viewBox="0 0 278.86 75.16">
  <defs>
    <style>
      .cls-1 {
        fill: #ffffff;
      }
    </style>
  </defs>
  <g id="Livello_1-2" data-name="Livello 1">
    <path class="cls-1" d="M0,0H23.28V75.16H0V0Z"/>
    <path class="cls-1" d="M195.03,22.76c-1.23-4.58-3.21-8.6-5.95-12.05-2.73-3.45-6.2-6.1-10.38-7.95-4.19-1.85-9.68-2.77-16.48-2.77h-34.5V17.02h29.02c6.02,0,10.32,1.47,12.92,4.41,2.6,2.94,3.9,8.39,3.9,16.35,0,6.02-.58,10.37-1.74,13.05-1.16,2.68-2.77,4.56-4.82,5.64-2.05,1.08-5.5,1.61-10.36,1.61h-5.69v-23.85h-23.23v40.92h34.5c4.14,0,8.75-.68,13.84-2.05,3.72-.99,7.21-2.98,10.46-5.97,3.25-2.99,5.79-6.7,7.61-11.13,1.83-4.43,2.74-10.65,2.74-18.69,0-5.13-.62-9.98-1.85-14.56Z"/>
    <polygon class="cls-1" points="250.61 0 225.28 0 197.03 75.16 220.74 75.16 224.41 62.75 229.45 46.5 237.66 19.48 245.96 46.5 250.77 62.75 254.53 75.16 278.86 75.16 250.61 0"/>
    <g>
      <polygon class="cls-1" points="111.97 41.95 111.97 0 90.08 0 90.08 9.49 111.97 41.95"/>
      <polygon class="cls-1" points="40.09 33.94 40.09 75.16 61.93 75.16 61.93 65.13 40.09 33.94"/>
      <polygon class="cls-1" points="61.42 0 40.09 0 40.09 2.81 61.93 34 61.93 33.89 64.86 38.18 90.61 74.95 90.3 75.16 111.97 75.16 111.97 74.95 61.42 0"/>
    </g>
  </g>
</svg>